<svg width="72" height="72" viewBox="0 0 72 72" fill="none" xmlns="http://www.w3.org/2000/svg">
<path d="M70 36C70 40.4649 69.1206 44.8862 67.4119 49.0112C65.7032 53.1363 63.1988 56.8844 60.0416 60.0416C56.8844 63.1988 53.1363 65.7032 49.0112 67.4119C44.8862 69.1206 40.4649 70 36 70C31.5351 70 27.1138 69.1206 22.9888 67.4119C18.8637 65.7032 15.1156 63.1988 11.9584 60.0416C8.80117 56.8844 6.29675 53.1363 4.58809 49.0112C2.87943 44.8862 2 40.4649 2 36C2 31.535 2.87944 27.1138 4.5881 22.9888C6.29676 18.8637 8.80119 15.1156 11.9584 11.9584C15.1156 8.80117 18.8637 6.29675 22.9888 4.58809C27.1138 2.87943 31.5351 2 36 2C40.465 2 44.8862 2.87944 49.0113 4.5881C53.1363 6.29677 56.8845 8.80119 60.0416 11.9584C63.1988 15.1156 65.7033 18.8637 67.4119 22.9888C69.1206 27.1139 70 31.5351 70 36L70 36Z" stroke="#F5F5F5" stroke-width="4"/>
<path d="M72 36C72 55.8823 55.8823 72 36 72C16.1177 72 0 55.8823 0 36C0 16.1177 16.1177 0 36 0C55.8823 0 72 16.1177 72 36ZM4.68 36C4.68 53.2976 18.7024 67.32 36 67.32C53.2976 67.32 67.32 53.2976 67.32 36C67.32 18.7024 53.2976 4.68 36 4.68C18.7024 4.68 4.68 18.7024 4.68 36Z" fill="#FAA300"/>
<path d="M49.3942 25.2188H47.0538C46.7257 25.2188 46.4143 25.3694 46.2134 25.6272L32.4087 43.115L25.7893 34.7277C25.6892 34.6005 25.5615 34.4977 25.416 34.427C25.2704 34.3562 25.1107 34.3194 24.9489 34.3192H22.6085C22.3842 34.3192 22.2603 34.577 22.3975 34.7511L31.5683 46.3694C31.9969 46.9118 32.8205 46.9118 33.2525 46.3694L49.6051 25.6473C49.7424 25.4766 49.6185 25.2188 49.3942 25.2188Z" fill="#FAA300"/>
</svg>
